{
  "source": "C:\\Users\\Peter\\Desktop\\stuff\\MIUN\\quantitative_research\\video_compression\\videos\\BVI-HD\\BVI-HD_CDVL_videos\\ORIG\\SmokeGuns_1920x1080_60fps.mp4",
  "output": "C:\\Users\\Peter\\Desktop\\stuff\\MIUN\\quantitative_research\\video_compression\\compressed_videos\\BVI-HD\\vp9\\2.5\\SmokeGuns_1920x1080_60fps_vp9.webm",
  "codec": "vp9",
  "ok": "Input #0, mov,mp4,m4a,3gp,3g2,mj2, from 'C:\\Users\\Peter\\Desktop\\stuff\\MIUN\\quantitative_research\\video_compression\\videos\\BVI-HD\\BVI-HD_CDVL_videos\\ORIG\\SmokeGuns_1920x1080_60fps.mp4':\n  Metadata:\n    major_brand     : isom\n    minor_version   : 512\n    compatible_brands: isomiso2avc1mp41\n    encoder         : Lavf54.28.101\n  Duration: 00:00:05.00, start: 0.000000, bitrate: 384353 kb/s\n  Stream #0:0[0x1](und): Video: h264 (High 4:4:4 Predictive) (avc1 / 0x31637661), yuv420p(progressive), 1920x1080, 384348 kb/s, 60 fps, 60 tbr, 60 tbn (default)\n    Metadata:\n      handler_name    : VideoHandler\n      vendor_id       : [0][0][0][0]\n[out#0/webm @ 00000244fcb19180] Codec AVOption b:a (set bitrate (in bits/s)) has not been used for any stream. The most likely reason is either wrong type (e.g. a video option with no video streams) or that it is a private option of some decoder which was not actually used for any stream.\nStream mapping:\n  Stream #0:0 -> #0:0 (h264 (native) -> vp9 (libvpx-vp9))\nPress [q] to stop, [?] for help\n[libvpx-vp9 @ 00000244fd0e2a80] v1.15.2-100-g40561f514\nOutput #0, webm, to 'C:\\Users\\Peter\\Desktop\\stuff\\MIUN\\quantitative_research\\video_compression\\compressed_videos\\BVI-HD\\vp9\\2.5\\SmokeGuns_1920x1080_60fps_vp9.webm':\n  Metadata:\n    major_brand     : isom\n    minor_version   : 512\n    compatible_brands: isomiso2avc1mp41\n    encoder         : Lavf62.3.100\n  Stream #0:0(und): Video: vp9, yuv420p(tv, progressive), 1920x1080, q=2-31, 2500 kb/s, 60 fps, 1k tbn (default)\n    Metadata:\n      encoder         : Lavc62.11.100 libvpx-vp9\n      handler_name    : VideoHandler\n      vendor_id       : [0][0][0][0]\n    Side data:\n      cpb: bitrate max/min/avg: 0/0/0 buffer size: 2500000 vbv_delay: N/A\nframe=    0 fps=0.0 q=0.0 size=       0KiB time=N/A bitrate=N/A speed=N/A elapsed=0:00:00.53    \nframe=    8 fps=7.2 q=50.0 size=       1KiB time=00:00:00.13 bitrate=  38.0kbits/s speed=0.12x elapsed=0:00:01.11    \nframe=   14 fps=8.6 q=48.0 size=       1KiB time=00:00:00.23 bitrate=  21.7kbits/s speed=0.143x elapsed=0:00:01.62    \nframe=   20 fps=9.3 q=47.0 size=       1KiB time=00:00:00.33 bitrate=  15.2kbits/s speed=0.156x elapsed=0:00:02.14    \nframe=   26 fps=9.8 q=46.0 size=       1KiB time=00:00:00.43 bitrate=  11.7kbits/s speed=0.163x elapsed=0:00:02.66    \nframe=   32 fps= 10 q=43.0 size=       1KiB time=00:00:00.53 bitrate=   9.5kbits/s speed=0.166x elapsed=0:00:03.20    \nframe=   37 fps=9.9 q=31.0 size=       1KiB time=00:00:00.61 bitrate=   8.2kbits/s speed=0.165x elapsed=0:00:03.72    \nframe=   44 fps= 10 q=43.0 size=       1KiB time=00:00:00.73 bitrate=   6.9kbits/s speed=0.172x elapsed=0:00:04.25    \nframe=   49 fps= 10 q=28.0 size=       1KiB time=00:00:00.81 bitrate=   6.2kbits/s speed=0.17x elapsed=0:00:04.80    \nframe=   56 fps= 11 q=44.0 size=       1KiB time=00:00:00.93 bitrate=   5.4kbits/s speed=0.175x elapsed=0:00:05.31    \nframe=   60 fps= 10 q=45.0 size=       1KiB time=00:00:01.00 bitrate=   5.1kbits/s speed=0.17x elapsed=0:00:05.86    \nframe=   67 fps= 11 q=45.0 size=       1KiB time=00:00:01.11 bitrate=   4.5kbits/s speed=0.175x elapsed=0:00:06.37    \nframe=   72 fps= 10 q=46.0 size=       1KiB time=00:00:01.20 bitrate=   4.2kbits/s speed=0.174x elapsed=0:00:06.88    \nframe=   78 fps= 11 q=45.0 size=       1KiB time=00:00:01.30 bitrate=   3.9kbits/s speed=0.176x elapsed=0:00:07.40    \nframe=   84 fps= 11 q=46.0 size=       1KiB time=00:00:01.40 bitrate=   3.6kbits/s speed=0.177x elapsed=0:00:07.93    \nframe=   90 fps= 11 q=45.0 size=       1KiB time=00:00:01.50 bitrate=   3.4kbits/s speed=0.177x elapsed=0:00:08.47    \nframe=   96 fps= 11 q=47.0 size=       1KiB time=00:00:01.60 bitrate=   3.2kbits/s speed=0.177x elapsed=0:00:09.02    \nframe=  102 fps= 11 q=47.0 size=       1KiB time=00:00:01.70 bitrate=   3.0kbits/s speed=0.178x elapsed=0:00:09.56    \nframe=  108 fps= 11 q=47.0 size=       1KiB time=00:00:01.80 bitrate=   2.8kbits/s speed=0.178x elapsed=0:00:10.08    \nframe=  114 fps= 11 q=48.0 size=       1KiB time=00:00:01.90 bitrate=   2.7kbits/s speed=0.179x elapsed=0:00:10.62    \nframe=  119 fps= 11 q=29.0 size=       1KiB time=00:00:01.98 bitrate=   2.6kbits/s speed=0.178x elapsed=0:00:11.15    \nframe=  126 fps= 11 q=48.0 size=       1KiB time=00:00:02.10 bitrate=   2.4kbits/s speed=0.18x elapsed=0:00:11.67    \nframe=  132 fps= 11 q=46.0 size=     512KiB time=00:00:02.20 bitrate=1906.5kbits/s speed=0.18x elapsed=0:00:12.21    \nframe=  139 fps= 11 q=47.0 size=     512KiB time=00:00:02.31 bitrate=1810.5kbits/s speed=0.182x elapsed=0:00:12.74    \nframe=  144 fps= 11 q=45.0 size=     512KiB time=00:00:02.40 bitrate=1747.6kbits/s speed=0.181x elapsed=0:00:13.27    \nframe=  150 fps= 11 q=46.0 size=     512KiB time=00:00:02.50 bitrate=1677.7kbits/s speed=0.181x elapsed=0:00:13.79    \nframe=  155 fps= 11 q=44.0 size=     512KiB time=00:00:02.58 bitrate=1623.6kbits/s speed=0.18x elapsed=0:00:14.31    \nframe=  161 fps= 11 q=46.0 size=     512KiB time=00:00:02.68 bitrate=1563.1kbits/s speed=0.181x elapsed=0:00:14.85    \nframe=  167 fps= 11 q=44.0 size=     512KiB time=00:00:02.78 bitrate=1506.9kbits/s speed=0.181x elapsed=0:00:15.39    \nframe=  173 fps= 11 q=47.0 size=     512KiB time=00:00:02.88 bitrate=1454.7kbits/s speed=0.181x elapsed=0:00:15.91    \nframe=  178 fps= 11 q=45.0 size=     512KiB time=00:00:02.96 bitrate=1413.8kbits/s speed=0.181x elapsed=0:00:16.43    \nframe=  185 fps= 11 q=47.0 size=     512KiB time=00:00:03.08 bitrate=1360.3kbits/s speed=0.182x elapsed=0:00:16.96    \nframe=  190 fps= 11 q=45.0 size=     512KiB time=00:00:03.16 bitrate=1324.5kbits/s speed=0.181x elapsed=0:00:17.47    \nframe=  197 fps= 11 q=47.0 size=     512KiB time=00:00:03.26 bitrate=1284.0kbits/s speed=0.182x elapsed=0:00:17.99    \nframe=  202 fps= 11 q=44.0 size=     512KiB time=00:00:03.36 bitrate=1245.8kbits/s speed=0.182x elapsed=0:00:18.54    \nframe=  208 fps= 11 q=46.0 size=     512KiB time=00:00:03.46 bitrate=1209.9kbits/s speed=0.182x elapsed=0:00:19.06    \nframe=  214 fps= 11 q=43.0 size=     512KiB time=00:00:03.56 bitrate=1176.0kbits/s speed=0.182x elapsed=0:00:19.57    \nframe=  221 fps= 11 q=45.0 size=     512KiB time=00:00:03.68 bitrate=1138.7kbits/s speed=0.183x elapsed=0:00:20.12    \nframe=  227 fps= 11 q=42.0 size=     512KiB time=00:00:03.78 bitrate=1108.6kbits/s speed=0.183x elapsed=0:00:20.66    \nframe=  234 fps= 11 q=43.0 size=     512KiB time=00:00:03.90 bitrate=1075.5kbits/s speed=0.184x elapsed=0:00:21.18    \nframe=  239 fps= 11 q=42.0 size=     512KiB time=00:00:03.98 bitrate=1053.0kbits/s speed=0.183x elapsed=0:00:21.71    \nframe=  245 fps= 11 q=43.0 size=     512KiB time=00:00:04.08 bitrate=1027.2kbits/s speed=0.184x elapsed=0:00:22.24    \nframe=  252 fps= 11 q=41.0 size=     512KiB time=00:00:04.20 bitrate= 998.6kbits/s speed=0.184x elapsed=0:00:22.77    \nframe=  259 fps= 11 q=38.0 size=    1280KiB time=00:00:04.30 bitrate=2438.5kbits/s speed=0.184x elapsed=0:00:23.32    \nframe=  267 fps= 11 q=41.0 size=    1280KiB time=00:00:04.45 bitrate=2356.4kbits/s speed=0.186x elapsed=0:00:23.87    \nframe=  273 fps= 11 q=41.0 size=    1280KiB time=00:00:04.55 bitrate=2304.6kbits/s speed=0.186x elapsed=0:00:24.39    \nframe=  276 fps= 11 q=42.0 size=    1280KiB time=00:00:04.60 bitrate=2279.5kbits/s speed=0.185x elapsed=0:00:24.92    \nframe=  276 fps= 11 q=42.0 size=    1280KiB time=00:00:04.60 bitrate=2279.5kbits/s speed=0.181x elapsed=0:00:25.43    \nframe=  276 fps= 11 q=42.0 size=    1280KiB time=00:00:04.60 bitrate=2279.5kbits/s speed=0.177x elapsed=0:00:25.98    \nframe=  276 fps= 10 q=42.0 size=    1280KiB time=00:00:04.60 bitrate=2279.5kbits/s speed=0.174x elapsed=0:00:26.51    \n[out#0/webm @ 00000244fcb19180] video:1547KiB audio:0KiB subtitle:0KiB other streams:0KiB global headers:0KiB muxing overhead: 0.179840%\nframe=  300 fps= 11 q=43.0 Lsize=    1550KiB time=00:00:05.00 bitrate=2539.3kbits/s speed=0.187x elapsed=0:00:26.69    \n",
  "seconds": 26.924909114837646,
  "probe_out": {}
}